<?xml version="1.0" encoding="UTF-8"?>
<svg width="13px" height="7px" viewBox="0 0 13 7" version="1.1" xmlns="http://www.w3.org/2000/svg" xmlns:xlink="http://www.w3.org/1999/xlink">
    <!-- Generator: sketchtool 51.2 (57519) - http://www.bohemiancoding.com/sketch -->
    <title>7B4ABC34-5004-46C7-BB97-8B0D0FDDDE1E</title>
    <desc>Created with sketchtool.</desc>
    <defs></defs>
    <g id="Customer-Service" stroke="none" stroke-width="1" fill="none" fill-rule="evenodd">
        <g id="Download-Assets" transform="translate(-408.000000, -233.000000)">
            <g id="icon/arrowdown" transform="translate(405.000000, 227.000000)">
                <rect id="Rectangle-path" x="0" y="0" width="20" height="20"></rect>
                <path d="M15.034,8.134 C14.631,8.547 10.385,12.591 10.385,12.591 C10.169,12.812 9.887,12.922 9.605,12.922 C9.323,12.922 9.04,12.812 8.825,12.591 C8.825,12.591 4.579,8.547 4.176,8.134 C3.773,7.72 3.745,6.976 4.176,6.534 C4.607,6.092 5.208,6.057 5.737,6.534 L9.606,10.244 L13.475,6.534 C14.003,6.057 14.605,6.092 15.036,6.534 C15.465,6.976 15.438,7.72 15.034,8.134 L15.034,8.134 Z" id="Shape" fill="#000000" fill-rule="evenodd"></path>
            </g>
        </g>
    </g>
</svg>