<?xml version="1.0" encoding="UTF-8"?>
<svg width="21px" height="19px" viewBox="0 0 21 19" version="1.1" xmlns="http://www.w3.org/2000/svg" xmlns:xlink="http://www.w3.org/1999/xlink">
    <!-- Generator: sketchtool 51.2 (57519) - http://www.bohemiancoding.com/sketch -->
    <title>B7B7DD46-2AB6-4A33-8769-AAB17052FE62</title>
    <desc>Created with sketchtool.</desc>
    <defs></defs>
    <g id="Customer-Service" stroke="none" stroke-width="1" fill="none" fill-rule="evenodd">
        <g id="Download-Assets" transform="translate(-405.000000, -336.000000)">
            <g id="icon/contact" transform="translate(405.000000, 335.000000)">
                <rect id="Rectangle-path" x="0" y="0" width="20" height="20"></rect>
                <path d="M6.221,12.486 L6.221,6.348 L2.459,6.348 C1.37,6.348 0.479,7.239 0.479,8.328 L0.479,14.268 C0.479,15.357 1.371,16.248 2.459,16.248 L3.449,16.248 L3.449,19.218 L6.419,16.248 L11.37,16.248 C12.459,16.248 13.35,15.357 13.35,14.268 L13.35,12.466 C13.286,12.479 13.22,12.486 13.152,12.486 L6.221,12.486 L6.221,12.486 Z M18.301,1.397 L9.39,1.397 C8.301,1.397 7.41,2.288 7.41,3.377 L7.41,11.298 L14.341,11.298 L17.312,14.268 L17.312,11.298 L18.302,11.298 C19.391,11.298 20.282,10.406 20.282,9.318 L20.282,3.378 C20.281,2.289 19.39,1.397 18.301,1.397 L18.301,1.397 Z" id="Shape" fill="#000000" fill-rule="evenodd"></path>
            </g>
        </g>
    </g>
</svg>