<?xml version="1.0" encoding="UTF-8"?>
<svg width="19px" height="12px" viewBox="0 0 19 12" version="1.1" xmlns="http://www.w3.org/2000/svg" xmlns:xlink="http://www.w3.org/1999/xlink">
    <!-- Generator: sketchtool 51.2 (57519) - http://www.bohemiancoding.com/sketch -->
    <title>D769B25A-A443-4ACE-BF4B-FB6E06860D54</title>
    <desc>Created with sketchtool.</desc>
    <defs></defs>
    <g id="Customer-Service" stroke="none" stroke-width="1" fill="none" fill-rule="evenodd">
        <g id="Download-Assets" transform="translate(-361.000000, -339.000000)">
            <g id="icon/email" transform="translate(360.000000, 335.000000)">
                <rect id="Rectangle-path" x="0" y="0" width="20" height="20"></rect>
                <path d="M2.057,5.433 C2.54,5.693 9.234,9.288 9.483,9.422 C9.732,9.556 10.055,9.62 10.38,9.62 C10.705,9.62 11.027,9.556 11.277,9.422 C11.526,9.288 18.219,5.693 18.702,5.433 C19.186,5.173 19.643,4.358 18.755,4.358 L2.004,4.358 C1.116,4.358 1.573,5.173 2.057,5.433 L2.057,5.433 Z M18.907,7.413 C18.358,7.7 11.613,11.226 11.277,11.402 C10.941,11.578 10.705,11.601 10.38,11.601 C10.054,11.601 9.819,11.578 9.483,11.402 C9.147,11.227 2.402,7.7 1.853,7.413 C1.466,7.211 1.47,7.448 1.47,7.63 L1.47,14.893 C1.47,15.308 2.023,15.842 2.452,15.842 L18.31,15.842 C18.739,15.842 19.292,15.308 19.292,14.893 L19.292,7.63 C19.292,7.448 19.294,7.211 18.907,7.413 L18.907,7.413 Z" id="Shape" fill="#000000" fill-rule="evenodd"></path>
            </g>
        </g>
    </g>
</svg>