<?xml version="1.0" encoding="UTF-8"?>
<svg width="21px" height="17px" viewBox="0 0 21 17" version="1.1" xmlns="http://www.w3.org/2000/svg" xmlns:xlink="http://www.w3.org/1999/xlink">
    <!-- Generator: sketchtool 51.2 (57519) - http://www.bohemiancoding.com/sketch -->
    <title>6891A050-267C-45AD-B559-233597F611E0</title>
    <desc>Created with sketchtool.</desc>
    <defs></defs>
    <g id="Customer-Service" stroke="none" stroke-width="1" fill="none" fill-rule="evenodd">
        <g id="Download-Assets" transform="translate(-288.000000, -277.000000)">
            <g id="icon/orders" transform="translate(288.000000, 276.000000)">
                <rect id="Rectangle-path" x="0" y="0" width="20" height="20"></rect>
                <path d="M9.32,10.012 L11.102,10.012 L11.102,11.992 L20.112,11.992 C20.112,11.992 19.966,7.578 19.914,6.197 C19.865,4.884 19.395,4.072 17.934,4.072 L14.758,4.072 C14.266,3.144 13.736,2.146 13.573,1.84 C13.245,1.222 13.134,1.102 12.405,1.102 L8.017,1.102 C7.288,1.102 7.176,1.222 6.849,1.84 C6.686,2.146 6.157,3.145 5.664,4.072 L2.487,4.072 C1.026,4.072 0.561,4.884 0.507,6.197 C0.453,7.509 0.31,11.992 0.31,11.992 L9.32,11.992 L9.32,10.012 L9.32,10.012 Z M7.885,2.997 C8.112,2.57 8.189,2.486 8.694,2.486 L11.73,2.486 C12.234,2.486 12.312,2.569 12.539,2.997 C12.624,3.157 12.854,3.591 13.108,4.071 L7.315,4.071 C7.569,3.591 7.799,3.157 7.885,2.997 L7.885,2.997 Z M11.103,14.962 L9.321,14.962 L9.321,12.982 L0.806,12.982 C0.806,12.982 0.929,14.762 1.003,16.272 C1.034,16.898 1.219,17.933 2.785,17.933 L17.638,17.933 C19.204,17.933 19.385,16.898 19.419,16.272 C19.506,14.719 19.617,12.982 19.617,12.982 L11.102,12.982 L11.102,14.962 L11.103,14.962 Z" id="Shape" fill="#000000" fill-rule="evenodd"></path>
            </g>
        </g>
    </g>
</svg>