<?xml version="1.0" encoding="UTF-8"?>
<svg width="19px" height="19px" viewBox="0 0 19 19" version="1.1" xmlns="http://www.w3.org/2000/svg" xmlns:xlink="http://www.w3.org/1999/xlink">
    <!-- Generator: sketchtool 51.2 (57519) - http://www.bohemiancoding.com/sketch -->
    <title>9CDFC5C3-1D46-42F7-9AF7-4C7C15813212</title>
    <desc>Created with sketchtool.</desc>
    <defs></defs>
    <g id="Customer-Service" stroke="none" stroke-width="1" fill="none" fill-rule="evenodd">
        <g id="Download-Assets" transform="translate(-226.000000, -277.000000)">
            <g id="icon/eletter" transform="translate(225.000000, 276.000000)">
                <rect id="Rectangle-path" x="0" y="0" width="20" height="20"></rect>
                <path d="M7.991,12.596 L4.03,11.012 L4.03,12.352 L7.991,13.937 L7.991,12.596 L7.991,12.596 Z M7.991,8.483 L4.03,6.898 L4.03,8.239 L7.991,9.824 L7.991,8.483 L7.991,8.483 Z M18.645,1.607 C18.373,1.423 18.027,1.385 17.722,1.507 L10.169,4.528 L2.615,1.507 C2.31,1.385 1.965,1.423 1.692,1.607 C1.421,1.791 1.257,2.098 1.257,2.427 L1.257,15.1 C1.257,15.505 1.503,15.869 1.879,16.019 L9.783,19.181 C9.783,19.181 9.945,19.233 9.975,19.24 C10.038,19.252 10.102,19.259 10.167,19.259 C10.231,19.259 10.295,19.252 10.359,19.24 C10.389,19.233 10.552,19.18 10.552,19.18 L18.455,16.019 C18.831,15.869 19.078,15.505 19.078,15.1 L19.078,2.427 C19.08,2.099 18.917,1.791 18.645,1.607 L18.645,1.607 Z M9.179,17.233 L2.842,14.699 L2.842,3.601 L9.179,6.136 L9.179,17.233 L9.179,17.233 Z M17.496,14.699 L11.159,17.233 L11.159,6.136 L17.496,3.601 L17.496,14.699 L17.496,14.699 Z M16.308,11.012 L12.347,12.596 L12.347,13.937 L16.308,12.352 L16.308,11.012 L16.308,11.012 Z M16.308,6.898 L12.347,8.483 L12.347,9.824 L16.308,8.239 L16.308,6.898 L16.308,6.898 Z" id="Shape" fill="#000000" fill-rule="evenodd"></path>
            </g>
        </g>
    </g>
</svg>