<?xml version="1.0" encoding="UTF-8"?>
<svg width="16px" height="19px" viewBox="0 0 16 19" version="1.1" xmlns="http://www.w3.org/2000/svg" xmlns:xlink="http://www.w3.org/1999/xlink">
    <!-- Generator: sketchtool 51.2 (57519) - http://www.bohemiancoding.com/sketch -->
    <title>8850DEB4-3126-4A7C-A4E6-88659F87BD9D</title>
    <desc>Created with sketchtool.</desc>
    <defs></defs>
    <g id="Customer-Service" stroke="none" stroke-width="1" fill="none" fill-rule="evenodd">
        <g id="Download-Assets" transform="translate(-263.000000, -335.000000)">
            <g id="icon/subscriptions" transform="translate(261.000000, 335.000000)">
                <rect id="Rectangle-path" x="0" y="0" width="20" height="20"></rect>
                <path d="M15.904,0.605 L4.023,0.605 C2.934,0.605 2.043,1.496 2.043,2.585 L2.043,16.446 C2.043,17.535 2.934,18.426 4.023,18.426 L15.904,18.426 C16.993,18.426 17.884,17.535 17.884,16.446 L17.884,2.585 C17.885,1.497 16.994,0.605 15.904,0.605 L15.904,0.605 Z M15.904,16.447 L4.023,16.447 L4.023,2.586 L15.904,2.586 L15.904,16.447 L15.904,16.447 Z M10.954,11.497 L6.003,11.497 L6.003,12.487 L10.954,12.487 L10.954,11.497 L10.954,11.497 Z M13.924,7.536 L9.964,7.536 L9.964,8.526 L13.924,8.526 L13.924,7.536 L13.924,7.536 Z M9.964,6.546 L13.924,6.546 L13.924,4.566 L9.964,4.566 L9.964,6.546 L9.964,6.546 Z M8.974,4.566 L6.004,4.566 L6.004,8.526 L8.974,8.526 L8.974,4.566 L8.974,4.566 Z M7.983,9.517 L6.003,9.517 L6.003,10.507 L7.983,10.507 L7.983,9.517 L7.983,9.517 Z M8.974,10.506 L13.925,10.506 L13.925,9.516 L8.974,9.516 L8.974,10.506 L8.974,10.506 Z M13.924,13.477 L6.003,13.477 L6.003,14.467 L13.924,14.467 L13.924,13.477 L13.924,13.477 Z M11.944,12.486 L13.924,12.486 L13.924,11.496 L11.944,11.496 L11.944,12.486 L11.944,12.486 Z" id="Shape" fill="#000000" fill-rule="evenodd"></path>
            </g>
        </g>
    </g>
</svg>