<?xml version="1.0" encoding="UTF-8"?>
<svg width="21px" height="17px" viewBox="0 0 21 17" version="1.1" xmlns="http://www.w3.org/2000/svg" xmlns:xlink="http://www.w3.org/1999/xlink">
    <!-- Generator: sketchtool 51.2 (57519) - http://www.bohemiancoding.com/sketch -->
    <title>CF8B4F18-BA84-443C-B9B1-744371149009</title>
    <desc>Created with sketchtool.</desc>
    <defs></defs>
    <g id="Customer-Service" stroke="none" stroke-width="1" fill="none" fill-rule="evenodd">
        <g id="Download-Assets" transform="translate(-309.000000, -336.000000)">
            <g id="icon/username" transform="translate(310.000000, 335.000000)">
                <rect id="Rectangle-path" x="0" y="0" width="20" height="20"></rect>
                <path d="M17.488,1.784 L1.647,1.784 C0.558,1.784 -0.333,2.675 -0.333,3.764 L-0.333,15.645 C-0.333,16.734 0.558,17.625 1.647,17.625 L17.488,17.625 C18.577,17.625 19.468,16.734 19.468,15.645 L19.468,3.764 C19.469,2.675 18.578,1.784 17.488,1.784 L17.488,1.784 Z M17.488,15.645 L1.647,15.645 L1.647,3.764 L17.488,3.764 L17.488,15.645 L17.488,15.645 Z M8.578,11.784 L3.627,11.784 L3.627,13.566 L8.578,13.566 L8.578,11.784 L8.578,11.784 Z M8.578,8.813 L3.627,8.813 L3.627,10.595 L8.578,10.595 L8.578,8.813 L8.578,8.813 Z M8.578,5.843 L3.627,5.843 L3.627,7.625 L8.578,7.625 L8.578,5.843 L8.578,5.843 Z M15.409,12.18 C15.409,12.18 13.726,11.74 13.726,10.875 C13.726,10.051 14.815,9.704 14.815,8.021 C14.815,6.654 14.399,5.842 13.033,5.842 C11.666,5.842 11.251,6.654 11.251,8.021 C11.251,9.704 12.34,10.05 12.34,10.875 C12.34,11.739 10.657,12.18 10.657,12.18 C10.558,12.18 10.558,13.566 10.558,13.566 L15.509,13.566 C15.508,13.566 15.508,12.18 15.409,12.18 L15.409,12.18 Z" id="Shape" fill="#000000" fill-rule="evenodd"></path>
            </g>
        </g>
    </g>
</svg>